<svg width="64" height="50" viewBox="0 0 64 50" fill="none" xmlns="http://www.w3.org/2000/svg">
<g id="Black">
<path id="Vector" d="M50.7625 0.674942C50.2 0.987442 50.1375 1.29994 50.125 3.46244V5.49994L42.925 5.52494L35.725 5.56244L35.425 5.91244C35.1375 6.24994 35.125 6.32494 35.125 8.23744V10.2249L34.6 10.0874C33.675 9.86244 30.2125 9.91244 29.025 10.1624C22.3625 11.6249 17.6375 16.8624 16.975 23.5249C16.725 25.9999 17.0875 28.4749 18.05 30.8249L18.475 31.8749H16.175H13.875V29.8749C13.875 27.2624 13.7 26.8749 12.5125 26.8749C12.125 26.8749 11.9 26.9624 11.5375 27.2749C9.7375 28.8374 0.85 36.7499 0.475 37.1374C0.0625 37.5499 0 37.6999 0 38.1874C0 38.6624 0.075 38.8249 0.4125 39.1749C0.7375 39.5249 2.9125 41.4624 11.5375 49.0874C12.0625 49.5499 12.6375 49.6249 13.2375 49.3249C13.7875 49.0374 13.875 48.6624 13.875 46.4999V44.4999L21.075 44.4749L28.275 44.4374L28.575 44.0874C28.8625 43.7499 28.875 43.6749 28.875 41.7624V39.7749L29.4125 39.9124C30.325 40.1374 33.7875 40.0874 34.975 39.8374C40.3875 38.6499 44.675 34.8624 46.35 29.7499C47.475 26.3374 47.3375 22.5624 45.95 19.1749L45.525 18.1249H47.825H50.125V20.1249C50.125 22.7374 50.3 23.1249 51.4875 23.1249C51.8375 23.1249 52.1 23.0249 52.4 22.7749C53.9125 21.5249 63.8625 12.5999 63.925 12.4374C63.9625 12.3249 64 12.0124 64 11.7374C64 11.3499 63.9125 11.1499 63.6 10.8249C63.2625 10.4749 61.0875 8.53744 52.4625 0.912441C51.95 0.46244 51.3125 0.362442 50.7625 0.674942ZM57 8.49994C59.025 10.2999 60.675 11.8124 60.675 11.8374C60.6625 11.8749 58.8875 13.4749 56.7375 15.3874L52.8125 18.8749L52.75 17.5624C52.6875 16.3374 52.6625 16.2374 52.3375 15.9124L52 15.5624L47.925 15.5249L43.85 15.4874L42.75 14.3874C41.6 13.2249 39.9375 12.0249 38.5625 11.3749L37.75 10.9874V9.54994V8.12494H44.7625C51.075 8.12494 51.8125 8.09994 52.125 7.91244C52.6375 7.61244 52.75 7.24994 52.75 5.91244V4.71244L53.0375 4.96244C53.1875 5.09994 54.975 6.68744 57 8.49994ZM33.7 12.6374C40.2875 13.5499 45.1375 19.7374 44.4125 26.2874C43.6375 33.1249 37.45 38.1624 30.7125 37.4124C23.8625 36.6374 18.8375 30.4499 19.6 23.6874C20.375 16.6999 26.8 11.6749 33.7 12.6374ZM11.6625 34.0874L12 34.4374L16.075 34.4749L20.1375 34.5124L21.25 35.6124C22.4125 36.7749 24.075 37.9749 25.4375 38.6249L26.25 39.0124V40.4499V41.8749H19.25C11.8 41.8749 11.7 41.8874 11.425 42.4624C11.375 42.5874 11.2875 43.2624 11.25 43.9499L11.1875 45.2124L7.2875 41.7624C5.15 39.8624 3.3875 38.2624 3.375 38.1999C3.3625 38.1374 5.1125 36.5249 7.2625 34.6124L11.1875 31.1249L11.25 32.4374C11.3125 33.6624 11.3375 33.7624 11.6625 34.0874Z" fill="#B278FB"/>
<path id="Vector_2" d="M31.35 15.075C30.85 15.3375 30.75 15.6125 30.75 16.675C30.75 17.6 30.75 17.6 30.3875 17.6875C29.875 17.8 28.9375 18.5 28.5 19.0875C27.9625 19.825 27.725 20.5625 27.7125 21.5625C27.7125 22.5125 28.0125 23.4125 28.5375 23.9875C29.0375 24.525 30.25 25.2375 31.6 25.7625C33.4 26.4625 33.5875 26.5625 33.825 27.025C34.375 28.0875 33.7125 29.475 32.45 29.875C31.7375 30.1 30.65 29.95 29.75 29.5C28.8 29.025 28.15 29 27.7125 29.4375C27.325 29.825 27.225 30.3 27.4125 30.875C27.5375 31.225 27.725 31.4 28.4 31.7875C28.875 32.0625 29.55 32.325 29.9875 32.4125L30.75 32.5625V33.475C30.75 34.275 30.7875 34.425 31.05 34.6875C31.6125 35.25 32.3875 35.25 32.95 34.6875C33.2125 34.425 33.25 34.275 33.25 33.4V32.4125L33.85 32.1875C34.75 31.8375 36 30.525 36.3625 29.5375C36.9125 28.0625 36.6875 26.35 35.8125 25.1875C35.3 24.525 34.575 24.075 33.1 23.5C30.6625 22.55 30.125 22.1125 30.375 21.25C30.7375 20 32.0125 19.7125 33.5625 20.5375C33.9 20.725 34.3125 20.875 34.475 20.875C34.8625 20.875 35.4625 20.55 35.625 20.2625C35.8375 19.85 35.775 19.0625 35.5 18.7125C35.225 18.3625 33.85 17.625 33.475 17.625C33.275 17.625 33.25 17.5125 33.25 16.675C33.25 15.6 33.15 15.325 32.625 15.0625C32.175 14.825 31.7875 14.825 31.35 15.075Z" fill="#B278FB"/>
</g>
</svg>
