<svg width="64" height="64" viewBox="0 0 64 64" fill="none" xmlns="http://www.w3.org/2000/svg">
<g id="Logo">
<g clip-path="url(#clip0_799_473)">
<rect width="64" height="64" rx="32" fill="white"/>
<g id="Group">
<path id="Vector" d="M63.7081 31.3588L44.5735 14.7205C44.3415 14.5189 44.0187 14.458 43.7296 14.5618C43.4402 14.6653 43.2295 14.9171 43.1784 15.2201L41.7976 23.3902H6.26482C5.85019 23.3902 5.49612 23.6896 5.42707 24.0982L4.95528 26.8892C4.91357 27.1359 4.98262 27.3882 5.14421 27.5793C5.30564 27.7704 5.54293 27.8805 5.79303 27.8805H21.8564L21.5153 30.1977H1.25651C0.841877 30.1977 0.487804 30.4971 0.41875 30.9057L0.0118436 33.3132C-0.0298666 33.5599 0.039187 33.812 0.200775 34.0033C0.362209 34.1942 0.599494 34.3043 0.849601 34.3043H25.4426L25.1018 36.6216H9.81035C9.39572 36.6216 9.04164 36.921 8.97259 37.3296L8.58561 39.6185C8.54375 39.8652 8.61295 40.1174 8.77439 40.3086C8.93598 40.4997 9.17326 40.6099 9.42337 40.6099H38.8864L37.5535 48.4966C37.497 48.8316 37.6451 49.168 37.9303 49.3522C38.0706 49.4427 38.2308 49.4879 38.391 49.4879C38.5563 49.4879 38.7217 49.4397 38.8648 49.3435L63.6239 32.7051C63.8435 32.5576 63.9817 32.3162 63.9981 32.0525C64.0151 31.7888 63.9076 31.5323 63.7081 31.3588Z" fill="#B278FB"/>
</g>
</g>
</g>
<defs>
<clipPath id="clip0_799_473">
<rect width="64" height="64" rx="32" fill="white"/>
</clipPath>
</defs>
</svg>
